<svg width="40" height="40" xmlns="http://www.w3.org/2000/svg"><path d="m21.09 18.733.001-.001h8.141c.868 0 1.57.694 1.57 1.551s-.702 1.551-1.57 1.551h-3.534c-2.386 0-4.32 1.91-4.32 4.266s1.934 4.266 4.32 4.266h11.37v.001h.007a9.216 9.216 0 0 1-.622 1.287C33.197 37.252 27.203 40 20.718 40H7.848c-6.04 0-9.81-5.838-6.777-11.053a601.748 601.748 0 0 0 5.86-10.214h14.16Z" fill="#F8D448"></path><path d="M15.543 3.191A6.384 6.384 0 0 1 21.057 0h9.757c5.045 0 8.18 5.548 5.622 9.948a13.129 13.129 0 0 1-3.812 4.155c3.952 1.253 6.816 4.95 6.816 9.318 0 1.684-.426 3.27-1.177 4.653H25.697c-1.085 0-1.964-.868-1.964-1.939 0-1.07.88-1.939 1.964-1.939h3.534c2.168 0 3.926-1.736 3.926-3.878 0-2.142-1.758-3.878-3.926-3.878h-3.417a13 13 0 0 1-.622.015H11.56c-.665 0-1.199-.006-1.733-.011-.533-.006-1.066-.011-1.73-.011 2.723-5.146 3.78-6.958 6.009-10.776l1.437-2.466Z" fill="#F8D448"></path></svg>