<svg width="20" height="20" viewBox="0 0 20 20" fill="none" xmlns="http://www.w3.org/2000/svg">
    <path d="M10.6951 9.36649C10.6952 9.36629 10.6953 9.3661 10.6954 9.36591H14.8235C15.2634 9.36591 15.62 9.71317 15.62 10.1415C15.62 10.5699 15.2634 10.9172 14.8235 10.9172H13.0314C11.8217 10.9172 10.8411 11.8722 10.8411 13.0502C10.8411 14.2283 11.8217 15.1832 13.0314 15.1832H18.7971C18.797 15.1834 18.7968 15.1835 18.7967 15.1837C18.7981 15.1835 18.7995 15.1834 18.8009 15.1832C18.7156 15.399 18.6107 15.614 18.4851 15.8269C16.834 18.6263 13.7943 20 10.506 20H3.97954C0.916358 20 -0.994889 17.081 0.543187 14.4733C1.55501 12.7781 2.47796 11.1815 3.5146 9.36649H10.6951Z" fill="white"/>
    <path d="M7.88174 1.59555C8.46471 0.606973 9.52849 0 10.6781 0H15.6258C18.1843 0 19.7742 2.77376 18.4768 4.97386C17.9827 5.81188 17.319 6.51543 16.5438 7.05147C18.5478 7.67809 20 9.52697 20 11.7103C20 12.5527 19.7838 13.3454 19.4031 14.0372H13.0307C12.4809 14.0372 12.0351 13.6031 12.0351 13.0677C12.0351 12.5322 12.4809 12.0981 13.0307 12.0981H14.8228C15.9225 12.0981 16.814 11.2299 16.814 10.159C16.814 9.08806 15.9225 8.21989 14.8228 8.21989H13.0902C12.9855 8.22486 12.8803 8.22737 12.7747 8.22737H5.86204C5.52502 8.22737 5.25416 8.22463 4.98341 8.22188C4.7129 8.21914 4.44249 8.2164 4.10634 8.2164C5.48667 5.64367 6.02307 4.73744 7.15291 2.82861C7.37044 2.46111 7.60996 2.05643 7.88174 1.59555Z" fill="white"/>
</svg>
